<svg width="100" height="100" viewBox="0 0 100 100" fill="none" xmlns="http://www.w3.org/2000/svg">
<path fill-rule="evenodd" clip-rule="evenodd" d="M41.6673 16.666H58.334C74.0475 16.666 81.9042 16.666 86.7858 21.5476C91.6673 26.4291 91.6673 34.2859 91.6673 49.9994C91.6673 65.7128 91.6673 73.5696 86.7858 78.4511C81.9042 83.3327 74.0475 83.3327 58.334 83.3327H41.6673C25.9538 83.3327 18.0971 83.3327 13.2155 78.4511C8.33398 73.5696 8.33398 65.7128 8.33398 49.9994C8.33398 34.2859 8.33398 26.4291 13.2155 21.5476C18.0971 16.666 25.9538 16.666 41.6673 16.666ZM55.209 37.4994C55.209 35.7735 56.6081 34.3743 58.334 34.3743H79.1673C80.8932 34.3743 82.2923 35.7735 82.2923 37.4994C82.2923 39.2252 80.8932 40.6244 79.1673 40.6244H58.334C56.6081 40.6244 55.209 39.2252 55.209 37.4994ZM59.3756 49.9994C59.3756 48.2735 60.7748 46.8744 62.5006 46.8744H79.1673C80.8932 46.8744 82.2923 48.2735 82.2923 49.9994C82.2923 51.7252 80.8932 53.1244 79.1673 53.1244H62.5006C60.7748 53.1244 59.3756 51.7252 59.3756 49.9994ZM63.5423 62.4994C63.5423 60.7735 64.9414 59.3744 66.6673 59.3744H79.1673C80.8932 59.3744 82.2923 60.7735 82.2923 62.4994C82.2923 64.2252 80.8932 65.6244 79.1673 65.6244H66.6673C64.9414 65.6244 63.5423 64.2252 63.5423 62.4994ZM45.834 37.4994C45.834 42.1017 42.103 45.8327 37.5007 45.8327C32.8983 45.8327 29.1673 42.1017 29.1673 37.4994C29.1673 32.897 32.8983 29.166 37.5007 29.166C42.103 29.166 45.834 32.897 45.834 37.4994ZM37.5007 70.8327C54.1673 70.8327 54.1673 67.1017 54.1673 62.4994C54.1673 57.897 46.7054 54.166 37.5007 54.166C28.2959 54.166 20.834 57.897 20.834 62.4994C20.834 67.1017 20.834 70.8327 37.5007 70.8327Z" fill="#7AA6A8"/>
</svg>
