<svg width="360" height="236" viewBox="0 0 360 236" fill="none" xmlns="http://www.w3.org/2000/svg">
<rect x="75" y="54" width="210" height="128" rx="11" stroke="#C8CCCC" stroke-width="8"/>
<path d="M78 139.5C80.2763 139.5 96.2001 120.088 108.375 106.619C112.473 102.085 119.207 101.356 124.347 104.661L181.781 141.583C185.981 144.284 191.356 144.34 195.611 141.728L227.932 121.89C232.286 119.218 237.802 119.343 242.03 122.211L283 150" stroke="#C8CCCC" stroke-width="8"/>
<circle cx="246" cy="83" r="16" fill="#C8CCCC"/>
<path d="M139.4 118.571H142.3L162.016 94.2893C163.103 92.951 164.482 91.8707 166.05 91.1283C167.618 90.3858 169.336 90.0002 171.075 90H209.846C214.59 90 218.855 92.8446 220.616 97.1839L229.3 118.975C234.295 120.25 238 124.68 238 130V150C238 151.579 236.702 152.857 235.1 152.857H226.4C226.4 162.325 218.61 170 209 170C199.39 170 191.6 162.325 191.6 152.857H168.4C168.4 162.325 160.61 170 151 170C141.39 170 133.6 162.325 133.6 152.857H124.9C123.298 152.857 122 151.579 122 150V135.714C122 126.246 129.79 118.571 139.4 118.571ZM209 161.429C213.798 161.429 217.7 157.584 217.7 152.857C217.7 148.13 213.798 144.286 209 144.286C204.202 144.286 200.3 148.13 200.3 152.857C200.3 157.584 204.202 161.429 209 161.429ZM195.95 118.571H216.806L209.846 101.429H195.95V118.571ZM187.25 118.571V101.429H171.075L157.155 118.571H187.25ZM151 161.429C155.798 161.429 159.7 157.584 159.7 152.857C159.7 148.13 155.798 144.286 151 144.286C146.202 144.286 142.3 148.13 142.3 152.857C142.3 157.584 146.202 161.429 151 161.429Z" fill="#AFB3B2"/>
</svg>
