<svg width="20" height="20" viewBox="0 0 20 20" fill="none" xmlns="http://www.w3.org/2000/svg">
<rect width="20" height="20" rx="10" fill="#646666"/>
<path d="M8.608 11.752C8.608 11.4067 8.664 11.1033 8.776 10.842C8.888 10.5807 9.03267 10.3473 9.21 10.142C9.38733 9.93667 9.574 9.74533 9.77 9.568C9.97533 9.39067 10.1667 9.218 10.344 9.05C10.5213 8.882 10.666 8.70467 10.778 8.518C10.89 8.33133 10.946 8.12133 10.946 7.888C10.946 7.496 10.7873 7.17867 10.47 6.936C10.1527 6.69333 9.728 6.572 9.196 6.572C8.68267 6.572 8.23467 6.66533 7.852 6.852C7.47867 7.03867 7.166 7.30467 6.914 7.65L5.556 6.768C5.948 6.236 6.46133 5.82067 7.096 5.522C7.73067 5.214 8.482 5.06 9.35 5.06C10.0313 5.06 10.6287 5.16267 11.142 5.368C11.6553 5.564 12.0567 5.85333 12.346 6.236C12.6353 6.60933 12.78 7.06667 12.78 7.608C12.78 7.98133 12.7193 8.308 12.598 8.588C12.486 8.868 12.3367 9.11533 12.15 9.33C11.9727 9.53533 11.7813 9.73133 11.576 9.918C11.3707 10.0953 11.1747 10.2727 10.988 10.45C10.8107 10.6273 10.666 10.8187 10.554 11.024C10.442 11.2293 10.386 11.472 10.386 11.752H8.608ZM9.504 15.098C9.17733 15.098 8.90667 14.9907 8.692 14.776C8.48667 14.5613 8.384 14.3047 8.384 14.006C8.384 13.7073 8.48667 13.4553 8.692 13.25C8.90667 13.0353 9.17733 12.928 9.504 12.928C9.83067 12.928 10.0967 13.0353 10.302 13.25C10.5073 13.4553 10.61 13.7073 10.61 14.006C10.61 14.3047 10.5073 14.5613 10.302 14.776C10.0967 14.9907 9.83067 15.098 9.504 15.098Z" fill="white"/>
</svg>
