<svg width="24" height="24" viewBox="0 0 24 24" fill="none" xmlns="http://www.w3.org/2000/svg">
<path d="M15.2543 7.04466L15.2543 5.83466C15.1996 3.31842 13.1207 1.32001 10.6043 1.36466L6.79426 1.36466C4.27782 1.32001 2.19893 3.31842 2.14426 5.83466L2.22426 18.6947C2.27894 21.2109 4.35782 23.2093 6.87426 23.1647L10.6843 23.1647C11.8981 23.1942 13.0738 22.7394 13.9518 21.9008C14.8298 21.0621 15.338 19.9086 15.3643 18.6947V17.4847C15.3643 17.0207 14.9882 16.6447 14.5243 16.6447C14.0603 16.6447 13.6843 17.0207 13.6843 17.4847V18.6947C13.6609 19.464 13.3305 20.192 12.7669 20.7162C12.2033 21.2403 11.4533 21.5171 10.6843 21.4847L6.90426 21.4847C6.13524 21.5171 5.38524 21.2403 4.82161 20.7162C4.25798 20.192 3.92763 19.464 3.90426 18.6947L3.76426 5.83466C3.78763 5.06532 4.11798 4.33734 4.68161 3.81317C5.24524 3.28899 5.99524 3.01224 6.76426 3.04466L10.5743 3.04466C11.3433 3.01224 12.0933 3.28899 12.6569 3.81317C13.2205 4.33734 13.5509 5.06532 13.5743 5.83466V7.04466C13.5743 7.50858 13.9503 7.88466 14.4143 7.88466C14.8782 7.88466 15.2543 7.50858 15.2543 7.04466Z" fill="#919599"/>
<path d="M22.75 11.9771L19.03 8.24706C18.8723 8.0889 18.6582 8 18.435 8C18.2117 8 17.9976 8.0889 17.84 8.24706C17.5212 8.5797 17.5212 9.10443 17.84 9.43706L20.14 11.7271L10.05 11.7271C9.58604 11.7271 9.20996 12.1031 9.20996 12.5671C9.20996 13.031 9.58604 13.4071 10.05 13.4071L20.14 13.4071L17.84 15.6971C17.5212 16.0297 17.5212 16.5544 17.84 16.8871C17.9976 17.0452 18.2117 17.1341 18.435 17.1341C18.6582 17.1341 18.8723 17.0452 19.03 16.8871L22.75 13.1571C22.9108 13.0031 23.0013 12.7897 23 12.5671C23.0037 12.3439 22.9129 12.1296 22.75 11.9771Z" fill="#919599"/>
</svg>
