<svg width="24" height="24" viewBox="0 0 24 24" fill="none" xmlns="http://www.w3.org/2000/svg">
<path fill-rule="evenodd" clip-rule="evenodd" d="M12 2.75C6.89137 2.75 2.75 6.89137 2.75 12C2.75 17.1086 6.89137 21.25 12 21.25C17.1086 21.25 21.25 17.1086 21.25 12C21.25 6.89137 17.1086 2.75 12 2.75ZM1.25 12C1.25 6.06294 6.06294 1.25 12 1.25C17.9371 1.25 22.75 6.06294 22.75 12C22.75 17.9371 17.9371 22.75 12 22.75C6.06294 22.75 1.25 17.9371 1.25 12Z" fill="#18191A"/>
<path fill-rule="evenodd" clip-rule="evenodd" d="M12 16.75C11.0542 16.75 10.175 17.0627 9.44665 17.6025C9.11387 17.8492 8.64416 17.7794 8.39751 17.4466C8.15086 17.1138 8.22068 16.6441 8.55345 16.3975C9.52585 15.6767 10.7151 15.25 12 15.25C13.285 15.25 14.4742 15.6767 15.4466 16.3975C15.7794 16.6441 15.8492 17.1138 15.6026 17.4466C15.3559 17.7794 14.8862 17.8492 14.5535 17.6025C13.8251 17.0627 12.9459 16.75 12 16.75Z" fill="#18191A"/>
<path d="M15 12C15.5523 12 16 11.3284 16 10.5C16 9.67157 15.5523 9 15 9C14.4477 9 14 9.67157 14 10.5C14 11.3284 14.4477 12 15 12Z" fill="#18191A"/>
<path d="M9 12C9.55228 12 10 11.3284 10 10.5C10 9.67157 9.55228 9 9 9C8.44772 9 8 9.67157 8 10.5C8 11.3284 8.44772 12 9 12Z" fill="#18191A"/>
</svg>
