<svg width="64" height="64" viewBox="0 0 64 64" fill="none" xmlns="http://www.w3.org/2000/svg">
<g id="sprint">
<mask id="mask0_3030_34251" style="mask-type:alpha" maskUnits="userSpaceOnUse" x="0" y="0" width="64" height="64">
<rect id="Bounding box" width="64" height="64" fill="#D9D9D9"/>
</mask>
<g mask="url(#mask0_3030_34251)">
<path id="sprint_2" d="M14.3998 53.3346L10.6665 49.6013L36.2665 24.0013H29.3332V29.3346H23.9998V18.668H39.5332C40.2443 18.668 40.9332 18.8013 41.5998 19.068C42.2665 19.3346 42.8443 19.7124 43.3332 20.2013L51.3332 28.1346C52.5332 29.3346 53.9998 30.268 55.7332 30.9346C57.4665 31.6013 59.3332 31.9569 61.3332 32.0013V37.3346C58.5776 37.3346 56.0776 36.9124 53.8332 36.068C51.5887 35.2235 49.5998 33.9569 47.8665 32.268L45.1998 29.468L39.3332 35.3346L45.3332 41.3346L27.8665 51.4013L25.1998 46.8013L36.6665 40.2013L32.1332 35.668L14.3998 53.3346ZM7.99984 34.668V29.3346H21.3332V34.668H7.99984ZM2.6665 26.668V21.3346H15.9998V26.668H2.6665ZM51.9332 21.3346C50.4665 21.3346 49.1998 20.8124 48.1332 19.768C47.0665 18.7235 46.5332 17.468 46.5332 16.0013C46.5332 14.5346 47.0665 13.2791 48.1332 12.2346C49.1998 11.1902 50.4665 10.668 51.9332 10.668C53.3998 10.668 54.6665 11.1902 55.7332 12.2346C56.7998 13.2791 57.3332 14.5346 57.3332 16.0013C57.3332 17.468 56.7998 18.7235 55.7332 19.768C54.6665 20.8124 53.3998 21.3346 51.9332 21.3346ZM7.99984 18.668V13.3346H21.3332V18.668H7.99984Z" fill="#7AA6A8"/>
</g>
</g>
</svg>
